<svg id="a3f79087-d6ec-4501-be92-7e130a093d09" data-name="Layer 1" xmlns="http://www.w3.org/2000/svg" viewBox="0 0 512 512"><defs><style>.bc07d010-8b46-45a4-92bb-5ae5813266af{opacity:0.4;isolation:isolate;}</style></defs><title>ka-icon-nextsvgArtboard 1</title><path class="bc07d010-8b46-45a4-92bb-5ae5813266af bgsvg1" id="bgsvg" d="M256,8C119,8,8,119,8,256S119,504,256,504,504,393,504,256,393,8,256,8ZM404.3,273,271.6,405.6a23.9,23.9,0,0,1-33.8.1l-.1-.1-11-10.9a24,24,0,0,1,0-33.94l.37-.36L302.6,288H120a23.94,23.94,0,0,1-24-23.88V248a23.94,23.94,0,0,1,23.88-24H302.6l-75.5-72.4a24.15,24.15,0,0,1-.65-34.15l.25-.25,11-10.9a23.9,23.9,0,0,1,33.8-.1l.1.1L404.3,239.1a23.9,23.9,0,0,1,.1,33.8l-.1.1Z"/><path d="M226.7,117.2l11-10.9a23.9,23.9,0,0,1,33.8-.1l.1.1L404.3,239.1a23.9,23.9,0,0,1,.1,33.8l-.1.1L271.6,405.6a23.9,23.9,0,0,1-33.8.1l-.1-.1-11-10.9a24,24,0,0,1,0-33.94l.37-.36L302.6,288H120a23.94,23.94,0,0,1-24-23.88V248a23.94,23.94,0,0,1,23.88-24H302.6l-75.5-72.4a24.15,24.15,0,0,1-.65-34.15l.25-.25Z"/>
</svg>