<svg id="a9a745a7-72c2-4c5d-8e47-0a0aceefea2d" data-name="Layer 1" xmlns="http://www.w3.org/2000/svg" viewBox="0 0 512 512"><defs><style>.befb7239-99c8-4074-aa55-47ab0b7feeae{opacity:0.4;isolation:isolate;}</style></defs><title>ka-icon-prevsvgArtboard 1</title><path class="befb7239-99c8-4074-aa55-47ab0b7feeae" id="bgsvg" d="M256,8C119,8,8,119,8,256S119,504,256,504,504,393,504,256,393,8,256,8ZM416,264a23.94,23.94,0,0,1-23.88,24H209.4l75.5,72.4a24,24,0,0,1,.76,33.93l-.36.37-11,10.9a23.9,23.9,0,0,1-33.8.1l-.1-.1L107.7,272.9a23.9,23.9,0,0,1-.1-33.8l.1-.1L240.4,106.4a23.9,23.9,0,0,1,33.8-.1l.1.1,11,10.9a24,24,0,0,1,0,33.94l-.37.36L209.4,224H392a23.94,23.94,0,0,1,24,23.88V264Z"/><path d="M285.3,394.7l-11,10.9a23.9,23.9,0,0,1-33.8.1l-.1-.1L107.7,272.9a23.9,23.9,0,0,1-.1-33.8l.1-.1L240.4,106.4a23.9,23.9,0,0,1,33.8-.1l.1.1,11,10.9a24,24,0,0,1,0,33.94l-.37.36L209.4,224H392a23.94,23.94,0,0,1,24,23.88V264a23.94,23.94,0,0,1-23.88,24H209.4l75.5,72.4a24,24,0,0,1,.76,33.93l-.36.37Z"/></svg>